<!-- icon666.com - MILLIONS vector ICONS FREE --><svg fill="none" viewBox="0 0 24 24" xmlns="http://www.w3.org/2000/svg"><g clip-rule="evenodd" fill-rule="evenodd"><path d="m12 5.41617c-3.28558-3.70118-9.45896-1.7625-9.99171 3.20984-.18482 1.72499.42042 3.44109 1.64653 4.66849l6.39958 6.4063c1.0742 1.0753 2.8169 1.0753 3.8911 0l6.3996-6.4063c1.2261-1.2274 1.8313-2.9435 1.6465-4.66849-.5327-4.97234-6.7061-6.91102-9.9916-3.20984z" fill="#ee8383"></path><path d="m12 5.41617c-3.28558-3.70118-9.45896-1.7625-9.99171 3.20984-.18482 1.72499.42042 3.44109 1.64653 4.66849l6.39958 6.4063c1.0742 1.0753 2.8169 1.0753 3.8911 0l6.3996-6.4063c1.2261-1.2274 1.8313-2.9435 1.6465-4.66849-.5327-4.97234-6.7061-6.91102-9.9916-3.20984zm-1.0404 1.08998c-2.40556-2.85661-7.06199-1.43365-7.45985 2.27966-.13653 1.27429.31056 2.54189 1.21629 3.44859l6.39956 6.4063c.4883.4888 1.2804.4888 1.7687 0l6.3996-6.4063c.9057-.9067 1.3528-2.1743 1.2163-3.44859-.3979-3.71331-5.0543-5.13627-7.4599-2.27966l-.4667.55417c-.1425.16922-.3524.26689-.5736.26689-.2213 0-.4312-.09767-.5737-.26689z" fill="#000" style="fill: rgb(255, 255, 255);"></path></g></svg>